<svg width="595" height="842" viewBox="0 0 595 842" fill="none" xmlns="http://www.w3.org/2000/svg">
<path d="M155.656 819.637L132.342 781.522C184.958 747.213 215.071 714.115 222.682 682.226C230.416 649.836 218.648 608.079 187.376 556.956L60.8105 350.044C38.791 314.047 23.2831 280.602 14.2868 249.71C5.59915 218.62 3.70128 189.481 8.59311 162.296C13.2999 134.807 25.2595 108.972 44.4719 84.7919C63.6844 60.6114 90.4279 37.484 124.702 15.4098L154.679 64.4152C121.145 85.5903 97.5504 108.587 83.8936 133.407C70.3606 157.724 66.117 184.915 71.1628 214.977C76.5174 244.841 90.6671 278.528 113.612 316.038L247.672 535.201C264.695 563.031 276.318 589.069 282.54 613.314C289.07 637.36 289.305 660.612 283.243 683.07C276.995 705.226 263.556 727.586 242.925 750.15C222.108 772.412 193.019 795.574 155.656 819.637ZM835.247 1177.02C800.973 1199.09 769.048 1213.75 739.474 1220.99C709.899 1228.23 682.026 1228.05 655.855 1220.45C629.869 1213.15 605.121 1198.73 581.613 1177.18C558.412 1155.44 535.802 1126.57 513.783 1090.57L387.217 883.659C355.946 832.536 324.508 803.658 292.904 797.025C261.423 789.891 219.19 803.176 166.203 836.88L142.889 798.765C180.436 775.004 213.596 758.497 242.369 749.243C270.957 739.686 296.332 736.837 318.492 740.697C340.653 744.557 360.865 754.731 379.129 771.22C397.703 787.511 415.501 809.571 432.524 837.401L566.584 1056.56C589.529 1094.07 612.942 1121.8 636.823 1139.73C661.013 1157.46 686.721 1165.36 713.947 1163.43C741.482 1161.3 771.923 1149.49 805.271 1128.01L835.247 1177.02ZM166.203 836.88L132.342 781.522L235.628 715.001L269.49 770.359L166.203 836.88Z" fill="black" fill-opacity="0.16"/>
<path d="M636.866 361.236L665.934 394.932C619.486 437.598 595.045 475.3 592.613 508.036C590.138 541.287 608.395 580.51 647.384 625.706L805.186 808.627C832.64 840.451 853.263 870.848 867.056 899.817C880.576 929.034 887.086 957.463 886.587 985.103C886.319 1013.01 878.633 1040.5 863.527 1067.58C848.422 1094.66 825.718 1121.95 795.418 1149.48L758.044 1106.15C787.756 1079.64 807.374 1053 816.896 1026.22C826.377 999.965 826.235 972.429 816.472 943.616C806.436 915.05 787.114 884.187 758.507 851.026L591.361 657.274C570.137 632.67 554.525 608.93 544.528 586.054C534.257 563.425 530.325 540.524 532.731 517.352C535.368 494.447 545.067 470.135 561.83 444.416C578.823 418.964 603.835 391.238 636.866 361.236ZM-90.4863 122.55C-60.1858 95.0276 -31.0231 75.2166 -2.99807 63.117C25.0269 51.0172 52.5542 46.5241 79.5839 49.6377C106.383 52.4838 133.094 62.5647 159.717 79.8802C186.066 97.4438 212.968 122.138 240.422 153.962L398.224 336.883C437.213 382.078 472.825 405.299 505.061 406.546C537.254 408.309 576.806 388.124 623.715 345.993L652.784 379.689C619.523 409.423 589.436 431.266 562.522 445.218C535.839 459.438 511.259 466.501 488.782 466.407C466.304 466.313 444.744 459.663 424.1 446.456C403.184 433.497 382.113 414.716 360.888 390.113L193.743 196.36C165.135 163.199 137.624 139.774 111.209 126.086C84.5213 112.645 57.9011 109.16 31.3486 115.63C4.52301 122.347 -23.6306 139.095 -53.1122 165.873L-90.4863 122.55ZM623.715 345.993L665.934 394.932L574.623 477.87L532.404 428.931L623.715 345.993Z" fill="black" fill-opacity="0.16"/>
</svg>
